<svg xmlns="http://www.w3.org/2000/svg" viewBox="0 0 800 450" role="img" aria-label="Illustration : événement">
  <defs>
    <linearGradient id="bg" x1="0" y1="0" x2="1" y2="1">
      <stop offset="0" stop-color="#ff9cc2" />
      <stop offset="0.55" stop-color="#d8397c" />
      <stop offset="1" stop-color="#9b1f52" />
    </linearGradient>
  </defs>

  <rect width="800" height="450" fill="url(#bg)" />

  <!-- Confettis -->
  <g fill="#fff" fill-opacity=".3">
    <rect x="120" y="86" width="26" height="12" rx="6" transform="rotate(-24 133 92)" />
    <rect x="620" y="120" width="26" height="12" rx="6" transform="rotate(32 633 126)" />
    <rect x="196" y="330" width="26" height="12" rx="6" transform="rotate(14 209 336)" />
    <rect x="592" y="332" width="26" height="12" rx="6" transform="rotate(-40 605 338)" />
    <circle cx="252" cy="130" r="10" />
    <circle cx="548" cy="322" r="10" />
    <circle cx="676" cy="228" r="8" />
    <circle cx="132" cy="240" r="8" />
  </g>

  <!-- Étoile centrale -->
  <path d="M400 118l34 92 92 34-92 34-34 92-34-92-92-34 92-34z" fill="#fff" fill-opacity=".95" />
  <path d="M594 96l16 44 44 16-44 16-16 44-16-44-44-16 44-16z" fill="#fff" fill-opacity=".55" />
  <path d="M206 292l12 34 34 12-34 12-12 34-12-34-34-12 34-12z" fill="#fff" fill-opacity=".45" />
</svg>
